<?xml version="1.0" encoding="utf-8"?>
<!-- Generator: Adobe Illustrator 24.1.2, SVG Export Plug-In . SVG Version: 6.00 Build 0)  -->
<svg version="1.1" id="Layer" xmlns="http://www.w3.org/2000/svg" xmlns:xlink="http://www.w3.org/1999/xlink" x="0px" y="0px"
	 viewBox="0 0 138 48" style="enable-background:new 0 0 138 48;" xml:space="preserve">
<style type="text/css">
	.st0{fill:url(#SVGID_1_);}
	.st1{fill:url(#SVGID_2_);}
	.st2{fill:url(#SVGID_3_);}
	.st3{fill:url(#SVGID_4_);}
	.st4{fill:url(#SVGID_5_);}
	.st5{fill:url(#SVGID_6_);}
	.st6{fill:url(#SVGID_7_);}
	.st7{fill:url(#SVGID_8_);}
	.st8{fill:url(#SVGID_9_);}
	.st9{fill:url(#SVGID_10_);}
	.st10{fill:url(#SVGID_11_);}
	.st11{fill:url(#SVGID_12_);}
	.st12{fill:url(#SVGID_13_);}
	.st13{fill:url(#SVGID_14_);}
	.st14{fill:url(#SVGID_15_);}
	.st15{fill:url(#SVGID_16_);}
</style>
<linearGradient id="SVGID_1_" gradientUnits="userSpaceOnUse" x1="1.8647" y1="22.8308" x2="30.6634" y2="22.8308" gradientTransform="matrix(0.9999 6.552489e-04 -6.552489e-04 -0.9939 0.1413 47.1292)">
	<stop  offset="0.2249" style="stop-color:#FDC700"/>
	<stop  offset="0.2265" style="stop-color:#FDC700"/>
	<stop  offset="0.5351" style="stop-color:#F28F1A"/>
	<stop  offset="0.765" style="stop-color:#EB6D2B"/>
	<stop  offset="0.8892" style="stop-color:#E86031"/>
</linearGradient>
<path class="st0" d="M23.2,33.1l-2.5-9.7l9.1-6.1l-4.7-13L7.4,4.1L11,6.2L2,38.4l7.2-6.8l2.8-8.2l3.4,0.4l2.3,9.6l13.1,11.4
	L23.2,33.1z M15.1,20.4l-2.6-10H22l1.6,4.3L15.1,20.4z"/>
<linearGradient id="SVGID_2_" gradientUnits="userSpaceOnUse" x1="21.9654" y1="18.7512" x2="44.7316" y2="18.7512" gradientTransform="matrix(1 0 0 -1 0 48.5513)">
	<stop  offset="0.2249" style="stop-color:#FDC700"/>
	<stop  offset="0.2265" style="stop-color:#FDC700"/>
	<stop  offset="0.5351" style="stop-color:#F28F1A"/>
	<stop  offset="0.765" style="stop-color:#EB6D2B"/>
	<stop  offset="0.8892" style="stop-color:#E86031"/>
</linearGradient>
<path class="st1" d="M44.7,19.2l-12.8-0.1L22,25.7l7.8,11.6l5-1l2.8,4.2l-1.7-4.7L44.7,19.2z M31.1,32.1l-4.3-6.4l5.1-3.4H37
	L31.1,32.1z"/>
<linearGradient id="SVGID_3_" gradientUnits="userSpaceOnUse" x1="82.9404" y1="19.7512" x2="105.7066" y2="19.7512" gradientTransform="matrix(1 0 0 -1 0 48.5513)">
	<stop  offset="0.2249" style="stop-color:#FDC700"/>
	<stop  offset="0.2265" style="stop-color:#FDC700"/>
	<stop  offset="0.5351" style="stop-color:#F28F1A"/>
	<stop  offset="0.765" style="stop-color:#EB6D2B"/>
	<stop  offset="0.8892" style="stop-color:#E86031"/>
</linearGradient>
<path class="st2" d="M96.8,36.3l8.9-16.5l-12.8-0.1L83,26.3l7.8,11.6L96.8,36.3z M92.1,32.7l-4.3-6.4l5.1-3.4H98L92.1,32.7z"/>
<linearGradient id="SVGID_4_" gradientUnits="userSpaceOnUse" x1="38.7697" y1="18.8512" x2="53.4483" y2="18.8512" gradientTransform="matrix(1 0 0 -1 0 48.5513)">
	<stop  offset="0.2249" style="stop-color:#FDC700"/>
	<stop  offset="0.2265" style="stop-color:#FDC700"/>
	<stop  offset="0.5351" style="stop-color:#F28F1A"/>
	<stop  offset="0.765" style="stop-color:#EB6D2B"/>
	<stop  offset="0.8892" style="stop-color:#E86031"/>
</linearGradient>
<polygon class="st3" points="42.2,16 53.4,16.1 41.6,38 43.5,43.4 38.8,36.3 48,19.4 "/>
<linearGradient id="SVGID_5_" gradientUnits="userSpaceOnUse" x1="47.4385" y1="36.2512" x2="53.8283" y2="36.2512" gradientTransform="matrix(1 0 0 -1 0 48.5513)">
	<stop  offset="0.2249" style="stop-color:#FDC700"/>
	<stop  offset="0.2265" style="stop-color:#FDC700"/>
	<stop  offset="0.5351" style="stop-color:#F28F1A"/>
	<stop  offset="0.765" style="stop-color:#EB6D2B"/>
	<stop  offset="0.8892" style="stop-color:#E86031"/>
</linearGradient>
<polygon class="st4" points="49.6,10.3 47.4,14.3 51.7,14.3 53.8,10.3 "/>
<linearGradient id="SVGID_6_" gradientUnits="userSpaceOnUse" x1="45.4648" y1="17.8512" x2="69.3355" y2="17.8512" gradientTransform="matrix(1 0 0 -1 0 48.5513)">
	<stop  offset="0.2249" style="stop-color:#FDC700"/>
	<stop  offset="0.2265" style="stop-color:#FDC700"/>
	<stop  offset="0.5351" style="stop-color:#F28F1A"/>
	<stop  offset="0.765" style="stop-color:#EB6D2B"/>
	<stop  offset="0.8892" style="stop-color:#E86031"/>
</linearGradient>
<polygon class="st5" points="57.1,36.4 62.8,45.3 59.8,36.9 69.3,19.5 59.2,19.3 60.8,16.2 54.2,16.1 57,17.8 45.5,38.5 59.1,22.7 
	64.6,22.7 "/>
<linearGradient id="SVGID_7_" gradientUnits="userSpaceOnUse" x1="62.5" y1="27.8012" x2="85.8" y2="27.8012" gradientTransform="matrix(1 0 0 -1 0 48.5513)">
	<stop  offset="0.2249" style="stop-color:#FDC700"/>
	<stop  offset="0.2265" style="stop-color:#FDC700"/>
	<stop  offset="0.5351" style="stop-color:#F28F1A"/>
	<stop  offset="0.765" style="stop-color:#EB6D2B"/>
	<stop  offset="0.8892" style="stop-color:#E86031"/>
</linearGradient>
<path class="st6" d="M75.8,19.5l8-14.6L73.4,4.8l5.1,2.4l-16,29.3l14.1,0.2l9.2-17L75.8,19.5z M73.5,23.8h6.3l-5.3,9.8l-6.2-0.1
	L73.5,23.8z"/>
<linearGradient id="SVGID_8_" gradientUnits="userSpaceOnUse" x1="63.4683" y1="-40.6689" x2="100.9868" y2="-40.6689" gradientTransform="matrix(0.9924 -0.123 -0.123 -0.9924 30.8118 -0.9874)">
	<stop  offset="0.2249" style="stop-color:#FDC700"/>
	<stop  offset="0.2265" style="stop-color:#FDC700"/>
	<stop  offset="0.5351" style="stop-color:#F28F1A"/>
	<stop  offset="0.765" style="stop-color:#EB6D2B"/>
	<stop  offset="0.8892" style="stop-color:#E86031"/>
</linearGradient>
<polygon class="st7" points="106.3,16.7 114,16.8 106.7,30 114.2,28.1 119.8,36.4 129.7,18.4 126.5,16.9 134.8,17 120.6,42.8 
	113.4,31.9 99.3,35.6 109,17.9 "/>
<g>
	
		<linearGradient id="SVGID_9_" gradientUnits="userSpaceOnUse" x1="3.0651" y1="23.2844" x2="31.8638" y2="23.2844" gradientTransform="matrix(0.9999 6.552489e-04 -6.552489e-04 -0.9939 0.1413 47.1292)">
		<stop  offset="0" style="stop-color:#2554A1"/>
		<stop  offset="3.810896e-02" style="stop-color:#2F62AA"/>
		<stop  offset="0.1465" style="stop-color:#4784BF"/>
		<stop  offset="0.2573" style="stop-color:#5B9ED0"/>
		<stop  offset="0.3702" style="stop-color:#68B1DC"/>
		<stop  offset="0.4864" style="stop-color:#70BCE3"/>
		<stop  offset="0.611" style="stop-color:#73C0E5"/>
	</linearGradient>
	<path class="st8" d="M24.4,32.7L21.9,23l9.1-6.1l-4.7-13L8.5,3.7l3.6,2.1L3.2,38l7.2-6.8l2.8-8.2l3.4,0.4l2.3,9.6L32,44.3
		L24.4,32.7z M16.3,19.9l-2.6-10h9.6l1.6,4.3L16.3,19.9z"/>
	
		<linearGradient id="SVGID_10_" gradientUnits="userSpaceOnUse" x1="23.1319" y1="19.1512" x2="45.8981" y2="19.1512" gradientTransform="matrix(1 0 0 -1 0 48.5513)">
		<stop  offset="0" style="stop-color:#2554A1"/>
		<stop  offset="3.810896e-02" style="stop-color:#2F62AA"/>
		<stop  offset="0.1465" style="stop-color:#4784BF"/>
		<stop  offset="0.2573" style="stop-color:#5B9ED0"/>
		<stop  offset="0.3702" style="stop-color:#68B1DC"/>
		<stop  offset="0.4864" style="stop-color:#70BCE3"/>
		<stop  offset="0.611" style="stop-color:#73C0E5"/>
	</linearGradient>
	<path class="st9" d="M45.9,18.8l-12.8-0.1l-9.9,6.6L31,36.9l5-1l2.8,4.2L37,35.3L45.9,18.8z M32.3,31.7L28,25.3l5.1-3.4h5.1
		L32.3,31.7z"/>
	
		<linearGradient id="SVGID_11_" gradientUnits="userSpaceOnUse" x1="84.1" y1="20.1512" x2="106.8662" y2="20.1512" gradientTransform="matrix(1 0 0 -1 0 48.5513)">
		<stop  offset="0" style="stop-color:#2554A1"/>
		<stop  offset="3.810896e-02" style="stop-color:#2F62AA"/>
		<stop  offset="0.1465" style="stop-color:#4784BF"/>
		<stop  offset="0.2573" style="stop-color:#5B9ED0"/>
		<stop  offset="0.3702" style="stop-color:#68B1DC"/>
		<stop  offset="0.4864" style="stop-color:#70BCE3"/>
		<stop  offset="0.611" style="stop-color:#73C0E5"/>
	</linearGradient>
	<path class="st10" d="M97.9,35.9l8.9-16.5L94,19.3l-9.9,6.6l7.8,11.6L97.9,35.9z M93.3,32.3L89,25.9l5.1-3.4h5.1L93.3,32.3z"/>
	
		<linearGradient id="SVGID_12_" gradientUnits="userSpaceOnUse" x1="39.9362" y1="19.3012" x2="54.6148" y2="19.3012" gradientTransform="matrix(1 0 0 -1 0 48.5513)">
		<stop  offset="0" style="stop-color:#2554A1"/>
		<stop  offset="3.810896e-02" style="stop-color:#2F62AA"/>
		<stop  offset="0.1465" style="stop-color:#4784BF"/>
		<stop  offset="0.2573" style="stop-color:#5B9ED0"/>
		<stop  offset="0.3702" style="stop-color:#68B1DC"/>
		<stop  offset="0.4864" style="stop-color:#70BCE3"/>
		<stop  offset="0.611" style="stop-color:#73C0E5"/>
	</linearGradient>
	<polygon class="st11" points="43.4,15.6 54.6,15.7 42.7,37.6 44.7,42.9 39.9,35.9 49.1,19 	"/>
	
		<linearGradient id="SVGID_13_" gradientUnits="userSpaceOnUse" x1="48.6" y1="36.6512" x2="54.9898" y2="36.6512" gradientTransform="matrix(1 0 0 -1 0 48.5513)">
		<stop  offset="0" style="stop-color:#2554A1"/>
		<stop  offset="3.810896e-02" style="stop-color:#2F62AA"/>
		<stop  offset="0.1465" style="stop-color:#4784BF"/>
		<stop  offset="0.2573" style="stop-color:#5B9ED0"/>
		<stop  offset="0.3702" style="stop-color:#68B1DC"/>
		<stop  offset="0.4864" style="stop-color:#70BCE3"/>
		<stop  offset="0.611" style="stop-color:#73C0E5"/>
	</linearGradient>
	<polygon class="st12" points="50.8,9.9 48.6,13.9 52.8,13.9 55,9.9 	"/>
	
		<linearGradient id="SVGID_14_" gradientUnits="userSpaceOnUse" x1="46.6314" y1="18.3012" x2="70.5021" y2="18.3012" gradientTransform="matrix(1 0 0 -1 0 48.5513)">
		<stop  offset="0" style="stop-color:#2554A1"/>
		<stop  offset="3.810896e-02" style="stop-color:#2F62AA"/>
		<stop  offset="0.1465" style="stop-color:#4784BF"/>
		<stop  offset="0.2573" style="stop-color:#5B9ED0"/>
		<stop  offset="0.3702" style="stop-color:#68B1DC"/>
		<stop  offset="0.4864" style="stop-color:#70BCE3"/>
		<stop  offset="0.611" style="stop-color:#73C0E5"/>
	</linearGradient>
	<polygon class="st13" points="58.3,36 64,44.8 61,36.5 70.5,19 60.3,18.9 62,15.8 55.4,15.7 58.2,17.4 46.6,38.1 60.3,22.3 
		65.8,22.3 	"/>
	
		<linearGradient id="SVGID_15_" gradientUnits="userSpaceOnUse" x1="63.7" y1="28.3012" x2="87" y2="28.3012" gradientTransform="matrix(1 0 0 -1 0 48.5513)">
		<stop  offset="0" style="stop-color:#2554A1"/>
		<stop  offset="3.810896e-02" style="stop-color:#2F62AA"/>
		<stop  offset="0.1465" style="stop-color:#4784BF"/>
		<stop  offset="0.2573" style="stop-color:#5B9ED0"/>
		<stop  offset="0.3702" style="stop-color:#68B1DC"/>
		<stop  offset="0.4864" style="stop-color:#70BCE3"/>
		<stop  offset="0.611" style="stop-color:#73C0E5"/>
	</linearGradient>
	<path class="st14" d="M77,19.1l8-14.6L74.6,4.3l5.1,2.4L63.7,36l14.1,0.2l9.2-17L77,19.1z M74.6,23.4h6.3l-5.3,9.8l-6.2-0.1
		L74.6,23.4z"/>
	
		<linearGradient id="SVGID_16_" gradientUnits="userSpaceOnUse" x1="64.7084" y1="-40.3638" x2="102.2269" y2="-40.3638" gradientTransform="matrix(0.9924 -0.123 -0.123 -0.9924 30.8118 -0.9874)">
		<stop  offset="0" style="stop-color:#2554A1"/>
		<stop  offset="3.810896e-02" style="stop-color:#2F62AA"/>
		<stop  offset="0.1465" style="stop-color:#4784BF"/>
		<stop  offset="0.2573" style="stop-color:#5B9ED0"/>
		<stop  offset="0.3702" style="stop-color:#68B1DC"/>
		<stop  offset="0.4864" style="stop-color:#70BCE3"/>
		<stop  offset="0.611" style="stop-color:#73C0E5"/>
	</linearGradient>
	<polygon class="st15" points="107.4,16.3 115.1,16.3 107.8,29.6 115.4,27.7 121,36 130.9,17.9 127.7,16.4 136,16.6 121.8,42.3 
		114.5,31.5 100.5,35.2 110.1,17.5 	"/>
</g>
</svg>
